{
    "asset" : {
        "generator" : "Khronos glTF Blender I/O v1.8.19",
        "version" : "2.0"
    },
    "scene" : 0,
    "scenes" : [
        {
            "name" : "Scene",
            "nodes" : [
                0,
                1,
                2,
                3
            ]
        }
    ],
    "nodes" : [
        {
            "mesh" : 0,
            "name" : "Mesh",
            "scale" : [
                0.22128134965896606,
                0.22128134965896606,
                0.22128134965896606
            ]
        },
        {
            "mesh" : 1,
            "name" : "InnerCone",
            "rotation" : [
                0.1736481785774231,
                0,
                -0.9848078489303589,
                -1.604455661663451e-07
            ],
            "scale" : [
                0.43018120527267456,
                0.5767373442649841,
                0.43018120527267456
            ],
            "translation" : [
                0,
                -0.5312321782112122,
                0
            ]
        },
        {
            "mesh" : 2,
            "name" : "OuterCone",
            "rotation" : [
                0.1736481785774231,
                0,
                -0.9848078489303589,
                -1.604455661663451e-07
            ],
            "scale" : [
                0.7795990109443665,
                0.7795989513397217,
                0.7795990109443665
            ],
            "translation" : [
                0,
                -0.3869624435901642,
                0
            ]
        },
        {
            "mesh" : 3,
            "name" : "Mesh.001",
            "scale" : [
                0.22128134965896606,
                0.22128134965896606,
                0.22128134965896606
            ]
        }
    ],
    "animations" : [
        {
            "channels" : [
                {
                    "sampler" : 0,
                    "target" : {
                        "node" : 1,
                        "path" : "translation"
                    }
                },
                {
                    "sampler" : 1,
                    "target" : {
                        "node" : 1,
                        "path" : "rotation"
                    }
                },
                {
                    "sampler" : 2,
                    "target" : {
                        "node" : 1,
                        "path" : "scale"
                    }
                }
            ],
            "name" : "throttleOffInner",
            "samplers" : [
                {
                    "input" : 14,
                    "interpolation" : "STEP",
                    "output" : 15
                },
                {
                    "input" : 14,
                    "interpolation" : "STEP",
                    "output" : 16
                },
                {
                    "input" : 14,
                    "interpolation" : "STEP",
                    "output" : 17
                }
            ]
        },
        {
            "channels" : [
                {
                    "sampler" : 0,
                    "target" : {
                        "node" : 1,
                        "path" : "translation"
                    }
                },
                {
                    "sampler" : 1,
                    "target" : {
                        "node" : 1,
                        "path" : "rotation"
                    }
                },
                {
                    "sampler" : 2,
                    "target" : {
                        "node" : 1,
                        "path" : "scale"
                    }
                }
            ],
            "name" : "throttleOnInner",
            "samplers" : [
                {
                    "input" : 18,
                    "interpolation" : "CUBICSPLINE",
                    "output" : 19
                },
                {
                    "input" : 20,
                    "interpolation" : "CUBICSPLINE",
                    "output" : 21
                },
                {
                    "input" : 18,
                    "interpolation" : "CUBICSPLINE",
                    "output" : 22
                }
            ]
        },
        {
            "channels" : [
                {
                    "sampler" : 0,
                    "target" : {
                        "node" : 2,
                        "path" : "translation"
                    }
                },
                {
                    "sampler" : 1,
                    "target" : {
                        "node" : 2,
                        "path" : "rotation"
                    }
                },
                {
                    "sampler" : 2,
                    "target" : {
                        "node" : 2,
                        "path" : "scale"
                    }
                }
            ],
            "name" : "throttleOffOuter",
            "samplers" : [
                {
                    "input" : 14,
                    "interpolation" : "STEP",
                    "output" : 23
                },
                {
                    "input" : 14,
                    "interpolation" : "STEP",
                    "output" : 24
                },
                {
                    "input" : 14,
                    "interpolation" : "STEP",
                    "output" : 25
                }
            ]
        },
        {
            "channels" : [
                {
                    "sampler" : 0,
                    "target" : {
                        "node" : 2,
                        "path" : "translation"
                    }
                },
                {
                    "sampler" : 1,
                    "target" : {
                        "node" : 2,
                        "path" : "rotation"
                    }
                },
                {
                    "sampler" : 2,
                    "target" : {
                        "node" : 2,
                        "path" : "scale"
                    }
                }
            ],
            "name" : "throttleOnOuter",
            "samplers" : [
                {
                    "input" : 18,
                    "interpolation" : "CUBICSPLINE",
                    "output" : 26
                },
                {
                    "input" : 20,
                    "interpolation" : "CUBICSPLINE",
                    "output" : 27
                },
                {
                    "input" : 18,
                    "interpolation" : "CUBICSPLINE",
                    "output" : 28
                }
            ]
        }
    ],
    "materials" : [
        {
            "doubleSided" : true,
            "name" : "Material.005",
            "pbrMetallicRoughness" : {
                "baseColorFactor" : [
                    1,
                    0.42271173000335693,
                    0.14502739906311035,
                    1
                ],
                "metallicFactor" : 0.5,
                "roughnessFactor" : 0.8999999761581421
            }
        },
        {
            "doubleSided" : true,
            "name" : "Material.001",
            "pbrMetallicRoughness" : {
                "baseColorFactor" : [
                    0.04518616944551468,
                    0.04518619552254677,
                    0.04518622159957886,
                    1
                ],
                "metallicFactor" : 0.5,
                "roughnessFactor" : 0.75
            }
        },
        {
            "alphaMode" : "BLEND",
            "doubleSided" : true,
            "name" : "Material.003",
            "pbrMetallicRoughness" : {
                "baseColorFactor" : [
                    1,
                    0.7758219242095947,
                    0.06480348110198975,
                    0.5999999642372131
                ],
                "metallicFactor" : 0,
                "roughnessFactor" : 0.5
            }
        },
        {
            "alphaMode" : "BLEND",
            "doubleSided" : true,
            "name" : "Material.002",
            "pbrMetallicRoughness" : {
                "baseColorFactor" : [
                    0.15592527389526367,
                    0.7379102110862732,
                    1,
                    0.25
                ],
                "metallicFactor" : 0,
                "roughnessFactor" : 0.5
            }
        },
        {
            "doubleSided" : true,
            "emissiveFactor" : [
                1,
                1,
                1
            ],
            "name" : "Material.004",
            "pbrMetallicRoughness" : {}
        }
    ],
    "meshes" : [
        {
            "name" : "Cube.001",
            "primitives" : [
                {
                    "attributes" : {
                        "POSITION" : 0,
                        "NORMAL" : 1
                    },
                    "indices" : 2,
                    "material" : 0
                },
                {
                    "attributes" : {
                        "POSITION" : 3,
                        "NORMAL" : 4
                    },
                    "indices" : 5,
                    "material" : 1
                }
            ]
        },
        {
            "name" : "InnerCone",
            "primitives" : [
                {
                    "attributes" : {
                        "POSITION" : 6,
                        "NORMAL" : 7
                    },
                    "indices" : 8,
                    "material" : 2
                }
            ]
        },
        {
            "name" : "OuterCone",
            "primitives" : [
                {
                    "attributes" : {
                        "POSITION" : 9,
                        "NORMAL" : 10
                    },
                    "indices" : 8,
                    "material" : 3
                }
            ]
        },
        {
            "name" : "Cube.004",
            "primitives" : [
                {
                    "attributes" : {
                        "POSITION" : 11,
                        "NORMAL" : 12
                    },
                    "indices" : 13,
                    "material" : 4
                }
            ]
        }
    ],
    "accessors" : [
        {
            "bufferView" : 0,
            "componentType" : 5126,
            "count" : 252,
            "max" : [
                1.3987743854522705,
                1.8050856590270996,
                1.3902404308319092
            ],
            "min" : [
                -1.4006192684173584,
                -1.4848544597625732,
                -1.4010448455810547
            ],
            "type" : "VEC3"
        },
        {
            "bufferView" : 1,
            "componentType" : 5126,
            "count" : 252,
            "type" : "VEC3"
        },
        {
            "bufferView" : 2,
            "componentType" : 5123,
            "count" : 348,
            "type" : "SCALAR"
        },
        {
            "bufferView" : 3,
            "componentType" : 5126,
            "count" : 84,
            "max" : [
                0.5320086479187012,
                1.988698124885559,
                0.5320086479187012
            ],
            "min" : [
                -0.5320086479187012,
                -1.2083863019943237,
                -0.5320086479187012
            ],
            "type" : "VEC3"
        },
        {
            "bufferView" : 4,
            "componentType" : 5126,
            "count" : 84,
            "type" : "VEC3"
        },
        {
            "bufferView" : 5,
            "componentType" : 5123,
            "count" : 144,
            "type" : "SCALAR"
        },
        {
            "bufferView" : 6,
            "componentType" : 5126,
            "count" : 32,
            "max" : [
                0.10281697660684586,
                -0.2486596256494522,
                0.10281697660684586
            ],
            "min" : [
                -0.10281697660684586,
                -0.6023010015487671,
                -0.10281697660684586
            ],
            "type" : "VEC3"
        },
        {
            "bufferView" : 7,
            "componentType" : 5126,
            "count" : 32,
            "type" : "VEC3"
        },
        {
            "bufferView" : 8,
            "componentType" : 5123,
            "count" : 42,
            "type" : "SCALAR"
        },
        {
            "bufferView" : 9,
            "componentType" : 5126,
            "count" : 32,
            "max" : [
                0.10281697660684586,
                -0.2486596256494522,
                0.10281697660684586
            ],
            "min" : [
                -0.10281697660684586,
                -0.6023010015487671,
                -0.10281697660684586
            ],
            "type" : "VEC3"
        },
        {
            "bufferView" : 10,
            "componentType" : 5126,
            "count" : 32,
            "type" : "VEC3"
        },
        {
            "bufferView" : 11,
            "componentType" : 5126,
            "count" : 2688,
            "max" : [
                1.4229404926300049,
                2.0121941566467285,
                1.4143527746200562
            ],
            "min" : [
                -1.424582600593567,
                -1.5086140632629395,
                -1.4252251386642456
            ],
            "type" : "VEC3"
        },
        {
            "bufferView" : 12,
            "componentType" : 5126,
            "count" : 2688,
            "type" : "VEC3"
        },
        {
            "bufferView" : 13,
            "componentType" : 5123,
            "count" : 4032,
            "type" : "SCALAR"
        },
        {
            "bufferView" : 14,
            "componentType" : 5126,
            "count" : 1,
            "max" : [
                0
            ],
            "min" : [
                0
            ],
            "type" : "SCALAR"
        },
        {
            "bufferView" : 15,
            "componentType" : 5126,
            "count" : 1,
            "type" : "VEC3"
        },
        {
            "bufferView" : 16,
            "componentType" : 5126,
            "count" : 1,
            "type" : "VEC4"
        },
        {
            "bufferView" : 17,
            "componentType" : 5126,
            "count" : 1,
            "type" : "VEC3"
        },
        {
            "bufferView" : 18,
            "componentType" : 5126,
            "count" : 3,
            "max" : [
                0.16666666666666666
            ],
            "min" : [
                0
            ],
            "type" : "SCALAR"
        },
        {
            "bufferView" : 19,
            "componentType" : 5126,
            "count" : 9,
            "type" : "VEC3"
        },
        {
            "bufferView" : 20,
            "componentType" : 5126,
            "count" : 2,
            "max" : [
                0.16666666666666666
            ],
            "min" : [
                0
            ],
            "type" : "SCALAR"
        },
        {
            "bufferView" : 21,
            "componentType" : 5126,
            "count" : 6,
            "type" : "VEC4"
        },
        {
            "bufferView" : 22,
            "componentType" : 5126,
            "count" : 9,
            "type" : "VEC3"
        },
        {
            "bufferView" : 23,
            "componentType" : 5126,
            "count" : 1,
            "type" : "VEC3"
        },
        {
            "bufferView" : 24,
            "componentType" : 5126,
            "count" : 1,
            "type" : "VEC4"
        },
        {
            "bufferView" : 25,
            "componentType" : 5126,
            "count" : 1,
            "type" : "VEC3"
        },
        {
            "bufferView" : 26,
            "componentType" : 5126,
            "count" : 9,
            "type" : "VEC3"
        },
        {
            "bufferView" : 27,
            "componentType" : 5126,
            "count" : 6,
            "type" : "VEC4"
        },
        {
            "bufferView" : 28,
            "componentType" : 5126,
            "count" : 9,
            "type" : "VEC3"
        }
    ],
    "bufferViews" : [
        {
            "buffer" : 0,
            "byteLength" : 3024,
            "byteOffset" : 0
        },
        {
            "buffer" : 0,
            "byteLength" : 3024,
            "byteOffset" : 3024
        },
        {
            "buffer" : 0,
            "byteLength" : 696,
            "byteOffset" : 6048
        },
        {
            "buffer" : 0,
            "byteLength" : 1008,
            "byteOffset" : 6744
        },
        {
            "buffer" : 0,
            "byteLength" : 1008,
            "byteOffset" : 7752
        },
        {
            "buffer" : 0,
            "byteLength" : 288,
            "byteOffset" : 8760
        },
        {
            "buffer" : 0,
            "byteLength" : 384,
            "byteOffset" : 9048
        },
        {
            "buffer" : 0,
            "byteLength" : 384,
            "byteOffset" : 9432
        },
        {
            "buffer" : 0,
            "byteLength" : 84,
            "byteOffset" : 9816
        },
        {
            "buffer" : 0,
            "byteLength" : 384,
            "byteOffset" : 9900
        },
        {
            "buffer" : 0,
            "byteLength" : 384,
            "byteOffset" : 10284
        },
        {
            "buffer" : 0,
            "byteLength" : 32256,
            "byteOffset" : 10668
        },
        {
            "buffer" : 0,
            "byteLength" : 32256,
            "byteOffset" : 42924
        },
        {
            "buffer" : 0,
            "byteLength" : 8064,
            "byteOffset" : 75180
        },
        {
            "buffer" : 0,
            "byteLength" : 4,
            "byteOffset" : 83244
        },
        {
            "buffer" : 0,
            "byteLength" : 12,
            "byteOffset" : 83248
        },
        {
            "buffer" : 0,
            "byteLength" : 16,
            "byteOffset" : 83260
        },
        {
            "buffer" : 0,
            "byteLength" : 12,
            "byteOffset" : 83276
        },
        {
            "buffer" : 0,
            "byteLength" : 12,
            "byteOffset" : 83288
        },
        {
            "buffer" : 0,
            "byteLength" : 108,
            "byteOffset" : 83300
        },
        {
            "buffer" : 0,
            "byteLength" : 8,
            "byteOffset" : 83408
        },
        {
            "buffer" : 0,
            "byteLength" : 96,
            "byteOffset" : 83416
        },
        {
            "buffer" : 0,
            "byteLength" : 108,
            "byteOffset" : 83512
        },
        {
            "buffer" : 0,
            "byteLength" : 12,
            "byteOffset" : 83620
        },
        {
            "buffer" : 0,
            "byteLength" : 16,
            "byteOffset" : 83632
        },
        {
            "buffer" : 0,
            "byteLength" : 12,
            "byteOffset" : 83648
        },
        {
            "buffer" : 0,
            "byteLength" : 108,
            "byteOffset" : 83660
        },
        {
            "buffer" : 0,
            "byteLength" : 96,
            "byteOffset" : 83768
        },
        {
            "buffer" : 0,
            "byteLength" : 108,
            "byteOffset" : 83864
        }
    ],
    "buffers" : [
        {
            "byteLength" : 83972,
            "uri" : "data:application/octet-stream;base64,"
        }
    ]
}
